<svg width="650" height="164" viewBox="0 0 650 164" xmlns="http://www.w3.org/2000/svg">
  <g fill="none" fill-rule="evenodd">
    <g fill-rule="nonzero">
      <path d="M210.588 126.973c3.521 0 7.205-.51 11.05-1.529 3.846-1.02 7.39-2.456 10.634-4.309 3.336-1.853 5.004-4.124 5.004-6.811 0-1.575-.417-2.873-1.251-3.892-.834-1.02-1.9-1.529-3.197-1.529-.834 0-1.877.301-3.128.903-1.25.603-2.015.997-2.293 1.182-2.78 1.483-5.421 2.687-7.923 3.614s-5.467 1.39-8.896 1.39c-12.88 0-19.784-7.182-20.711-21.545h42.951c3.336 0 5.004-1.853 5.004-5.56 0-9.915-2.641-17.792-7.923-23.63-5.282-5.838-12.464-8.757-21.545-8.757-6.301 0-11.93 1.483-16.889 4.448-4.957 2.965-8.803 7.135-11.536 12.51-2.734 5.375-4.101 11.537-4.101 18.487 0 10.842 3.104 19.39 9.313 25.645 6.209 6.255 14.688 9.383 25.437 9.383zm15.151-40.588h-35.862c.649-6.209 2.595-11.027 5.838-14.456 3.243-3.429 7.552-5.143 12.927-5.143 5.282 0 9.383 1.691 12.301 5.074 2.92 3.382 4.518 8.224 4.796 14.525zm51.459 40.171c1.483 0 2.896-.394 4.24-1.181 1.343-.788 2.34-1.923 2.988-3.406l26.549-56.295a6.43 6.43 0 00.556-2.641c0-1.668-.672-3.104-2.015-4.309-1.344-1.205-2.896-1.807-4.657-1.807-1.205 0-2.34.324-3.405.973-1.066.649-1.877 1.668-2.433 3.058l-21.406 47.677-21.545-47.816c-1.297-2.595-3.29-3.892-5.977-3.892-1.853 0-3.521.602-5.004 1.807-1.483 1.205-2.224 2.641-2.224 4.309 0 1.02.185 1.9.556 2.641l26.549 56.295c.649 1.483 1.645 2.618 2.989 3.406 1.343.787 2.756 1.181 4.239 1.181z" fill="#6055F6"/>
      <path d="M344.086 126.973c8.433 0 15.174-1.83 20.225-5.49 5.05-3.66 7.575-8.503 7.575-14.526 0-3.8-.764-6.927-2.293-9.383-1.53-2.455-4.055-4.517-7.576-6.185-3.521-1.668-8.386-3.15-14.595-4.448-6.023-1.297-10.124-2.664-12.302-4.1-2.177-1.437-3.266-3.452-3.266-6.047 0-2.873 1.181-5.143 3.544-6.811 2.363-1.668 5.491-2.502 9.383-2.502 3.243 0 5.954.417 8.132 1.251 2.177.834 4.517 1.992 7.019 3.475 1.39.834 2.502 1.436 3.336 1.807.834.37 1.668.556 2.502.556 1.205 0 2.247-.51 3.128-1.529.88-1.02 1.32-2.27 1.32-3.753 0-2.687-1.529-5.05-4.587-7.089-2.687-1.853-5.792-3.266-9.313-4.24a40.52 40.52 0 00-10.842-1.459c-5.19 0-9.823.88-13.9 2.641-4.077 1.76-7.274 4.24-9.591 7.437-2.317 3.197-3.475 6.787-3.475 10.772 0 5.19 1.784 9.29 5.352 12.302 3.567 3.011 9.428 5.397 17.583 7.158 4.726 1.02 8.294 1.97 10.703 2.85 2.41.88 4.1 1.876 5.073 2.988.973 1.112 1.46 2.595 1.46 4.448 0 2.873-1.251 5.097-3.753 6.672-2.502 1.575-5.977 2.363-10.425 2.363-3.985 0-7.298-.463-9.939-1.39-2.64-.927-5.351-2.131-8.131-3.614-2.595-1.483-4.494-2.224-5.699-2.224-1.297 0-2.363.51-3.197 1.529-.834 1.02-1.251 2.27-1.251 3.753 0 1.39.347 2.641 1.042 3.753.695 1.112 1.877 2.178 3.545 3.197 6.023 3.892 13.761 5.838 23.213 5.838zm95.661-.278c2.224 0 3.962-.58 5.213-1.737 1.25-1.159 1.876-2.804 1.876-4.935v-36.14c0-18.255-8.108-27.383-24.325-27.383-5.004 0-9.498 1.066-13.483 3.197-3.985 2.131-7.089 5.236-9.313 9.313v-5.699c0-1.946-.602-3.521-1.807-4.726s-2.826-1.807-4.865-1.807-3.73.625-5.074 1.876c-1.343 1.251-2.015 2.85-2.015 4.796v56.573c0 2.039.649 3.66 1.946 4.865s3.012 1.807 5.143 1.807 3.822-.602 5.073-1.807c1.251-1.205 1.877-2.826 1.877-4.865V87.358c0-5.93 1.714-10.657 5.143-14.178 3.429-3.521 7.97-5.282 13.622-5.282 4.819 0 8.363 1.344 10.633 4.031 2.27 2.687 3.406 6.904 3.406 12.649v35.445c0 2.039.625 3.66 1.876 4.865s2.943 1.807 5.074 1.807zm46.455.278c4.633 0 8.688-1.043 12.163-3.127 3.475-2.086 6.092-5.074 7.853-8.966v5.143c0 2.039.602 3.66 1.807 4.865s2.826 1.807 4.865 1.807c2.131 0 3.8-.58 5.004-1.737 1.205-1.159 1.807-2.804 1.807-4.935V84.022c0-9.267-2.2-16.17-6.603-20.711-4.401-4.54-11.096-6.811-20.085-6.811-4.077 0-8.294.533-12.649 1.598-4.355 1.066-8.155 2.48-11.398 4.24-1.76 1.02-3.035 2.062-3.822 3.127-.788 1.066-1.182 2.294-1.182 3.684 0 1.575.44 2.873 1.32 3.892.88 1.02 2.016 1.529 3.406 1.529 1.02 0 2.78-.695 5.282-2.085 3.429-1.575 6.58-2.78 9.452-3.614 2.873-.834 5.93-1.251 9.174-1.251 4.726 0 8.155 1.158 10.286 3.475 2.131 2.317 3.197 6.07 3.197 11.259v4.031h-3.197c-10.379 0-18.487.625-24.325 1.876-5.838 1.251-10.054 3.29-12.649 6.116-2.595 2.827-3.846 6.742-3.753 11.746 0 3.985 1.066 7.552 3.197 10.703 2.131 3.15 5.027 5.63 8.688 7.437 3.66 1.806 7.714 2.71 12.162 2.71zm2.502-10.425c-3.614 0-6.626-1.066-9.035-3.197-2.41-2.131-3.614-4.865-3.614-8.201 0-2.873.834-5.073 2.502-6.602 1.668-1.53 4.448-2.618 8.34-3.267 3.892-.649 9.452-.973 16.68-.973h2.502v3.614c0 5.467-1.622 9.939-4.865 13.414-3.243 3.474-7.413 5.212-12.51 5.212zm55.907 35.167c2.039 0 3.684-.58 4.935-1.737 1.25-1.159 1.876-2.711 1.876-4.657v-30.997c2.039 4.077 5.004 7.205 8.896 9.383 3.892 2.177 8.386 3.266 13.483 3.266 5.93 0 11.19-1.436 15.776-4.309 4.587-2.873 8.132-6.95 10.634-12.232 2.502-5.282 3.753-11.398 3.753-18.348 0-7.043-1.274-13.251-3.823-18.626-2.548-5.375-6.116-9.545-10.703-12.51S579.64 56.5 573.801 56.5c-5.097 0-9.591 1.112-13.483 3.336-3.892 2.224-6.857 5.375-8.896 9.452v-5.699c0-2.039-.649-3.683-1.946-4.934-1.297-1.251-2.965-1.877-5.004-1.877-2.131 0-3.846.626-5.143 1.877-1.297 1.25-1.946 2.895-1.946 4.934v81.454c0 2.039.672 3.66 2.015 4.865 1.344 1.205 3.082 1.807 5.213 1.807zm25.854-35.862c-6.116 0-10.819-2.085-14.108-6.255-3.29-4.17-4.935-10.1-4.935-17.792 0-7.691 1.645-13.622 4.935-17.792 3.29-4.17 7.992-6.255 14.108-6.255 6.023 0 10.726 2.131 14.109 6.394 3.382 4.263 5.073 10.24 5.073 17.931 0 7.599-1.668 13.46-5.004 17.584-3.336 4.123-8.062 6.185-14.178 6.185z" fill="#211746"/>
    </g>
    <g fill="#6055F6">
      <path d="M10 80.41c0-37.88 131-37.88 131 0 0 37.881-29.325 68.59-65.5 68.59S10 118.291 10 80.41zM78 65l-18 43 13-4.26V137l18-43-13 4.26V65z"/>
      <path d="M101 14c7.18 0 13 5.82 13 13l.004 23.265c-8.012-1.957-16.875-3.241-26.003-3.851L88 27c0-7.18 5.82-13 13-13zM50.004 14c7.18 0 13 5.82 13 13l-.002 19.414c-9.127.61-17.99 1.894-26.002 3.851L37.004 27c0-7.18 5.82-13 13-13z"/>
    </g>
  </g>
</svg>
